<svg id="Layer_1" enable-background="new 0 0 508.877 508.877" height="512" viewBox="0 0 508.877 508.877" width="512" xmlns="http://www.w3.org/2000/svg">
<path d="m415.066 51.753-272.768 91.098c-6.529 2.18-10.932 8.292-10.932 15.176v147.865c0 6.883 4.403 12.996 10.932 15.176l272.768 91.098c10.349 3.457 21.068-4.256 21.068-15.176v-330.061c.001-10.911-10.708-18.635-21.068-15.176z" fill="#FFFFFF"/>
<path d="m468.135 167.574v128.77c54.158-25.706 54.487-102.907 0-128.77z" fill="#FFFFFF"/>
<path d="m99.367 305.892c0-159.324-1.062-153.155 2.772-163.95h-12.122c-49.636 0-90.017 40.381-90.017 90.017s40.381 90.017 90.017 90.017h12.122c-1.798-5.064-2.772-10.485-2.772-16.084z" fill="#FFFFFF"/>
<path d="m176.774 366.319-36.957-12.343c-53.753 0-54.647.284-64.314-.867l19.899 92.223c1.589 7.367 8.104 12.625 15.64 12.625h65.684c10.224 0 17.783-9.445 15.64-19.375z" fill="#FFFFFF"/></svg>