<svg height="512pt" viewBox="0 -57 512 511" width="512pt" xmlns="http://www.w3.org/2000/svg"><g fill-rule="evenodd">
<path d="m360.34375 112.050781-128.617188-.304687v-3.109375c0-16.148438-13.136718-29.285157-29.28125-29.285157-16.148437 0-29.285156 13.136719-29.285156 29.285157v3.414062h-21.480468c-5.523438 0-10 4.476563-10 10 0 5.519531 4.476562 10 10 10h21.480468v3.414063c0 16.148437 13.136719 29.285156 29.285156 29.285156 16.144532 0 29.28125-13.136719 29.28125-29.285156v-3.71875l128.570313.304687h.023437c5.511719 0 9.988282-4.460937 10-9.976562.011719-5.523438-4.453124-10.011719-9.976562-10.023438zm-148.617188 23.414063c0 5.121094-4.164062 9.285156-9.28125 9.285156-5.121093 0-9.285156-4.164062-9.285156-9.285156v-26.828125c0-5.121094 4.164063-9.285157 9.285156-9.285157 5.117188 0 9.28125 4.164063 9.28125 9.285157zm0 0" fill="#C5C5C5"/>
<path d="m360.320312 188.679688h-11.96875v-3.414063c0-16.148437-13.136718-29.285156-29.285156-29.285156-16.148437 0-29.28125 13.136719-29.28125 29.285156v3.414063h-138.105468c-5.523438 0-10 4.480468-10 10 0 5.523437 4.476562 10 10 10h138.105468v3.414062c0 16.148438 13.136719 29.285156 29.28125 29.285156 16.148438 0 29.285156-13.136718 29.285156-29.285156v-3.414062h11.96875c5.523438 0 10-4.476563 10-10 0-5.519532-4.476562-10-10-10zm-31.96875 23.414062c0 5.121094-4.164062 9.285156-9.28125 9.285156h-.003906c-5.117187 0-9.28125-4.164062-9.28125-9.285156v-13.375c0-.011719 0-.023438 0-.039062 0-.011719 0-.023438 0-.039063v-13.375c0-5.121094 4.164063-9.285156 9.285156-9.285156 5.117188 0 9.28125 4.164062 9.28125 9.285156zm0 0" fill="#C5C5C5"/>
</g></svg>